<svg xmlns="http://www.w3.org/2000/svg" viewBox="0 0 131.66 68.52"><defs><style>.cls-1{fill:#094d30;}</style></defs><g id="Layer_2" data-name="Layer 2"><g id="Layer_1-2" data-name="Layer 1"><path class="cls-1" d="M49.57,17.17c.07,1,1.2,7.2,1.54,9,1.56,1.94,3.33,4.18,5.22,6.58h2.3a32.51,32.51,0,0,1-.25-3.5c0-1,.3-5.34.52-6.28s.08-5.09.13-6-1-6.21-1.16-7.46a13.88,13.88,0,0,1-.2-1.81c-1.19-.23-2.15-.59-2-1.38.15-1.11-1.19-1.85-3.23-2.58S49.66,3,49,2.59A25.84,25.84,0,0,0,45,1.5l-.14,0c.11.4.21.8.32,1.2.89,2.85,2,6.18,2.15,6.8a77.09,77.09,0,0,1,2.2,7.7m-2.38,4.22c.78.93,1.73,2.07,2.79,3.38a9.8,9.8,0,0,1-.28-2.08c0-.57-.45-3.89-.44-4.37s-.57-2.7-.63-3.24a33.3,33.3,0,0,0-1.16-4.48,34.61,34.61,0,0,1-1.34-4c0-.22-.43-2-.91-3.88-.14-.42-.26-.82-.39-1.21A8,8,0,0,1,42.15.28c-1.43-.82-3.2.43-3.82.37a3,3,0,0,0-3.06,1c-1.14,1.31-.91,1.35-2.94.63s-6.18.76-7.55.42a4.46,4.46,0,0,0-1.9.16c4.64,3,19.47,12.81,24.31,18.57m12.45-2.63c-.21,1.91-.13,1.51.33,14h2.65c0-.16,0-.33,0-.47-2.3-7.15-.79-14.66,3.52-21a9,9,0,0,0-.3-1C65.22,8.77,63.68,9,62.17,9.18s-1.24-1.07-3-1.29l-.73-.11c.22,3.6,1.65,6.89,1.19,11m5.12,14h39.77c2.56-7.56.86-16.27-6.65-18.68C99.21,12.4,101,9.76,100.94,9c-.09-1.09-2.45-.27-2.45-.27s-.35-.43-.31,1.39c0,1.08-1.07,2.33-2,3.17a4.29,4.29,0,0,1-1.54-1.86c-3.42-10.07-19.47-8.88-26.11-.27C63.68,17.5,62,25.39,64.76,32.74M21.49,14.36a2.12,2.12,0,0,0,2.15,1.5l-.1,1.55a19.19,19.19,0,0,0-.1,3.2,3.2,3.2,0,0,0,1.81,2.47c.66.38,1.51.35,1.91,2.15a5.12,5.12,0,0,1-.36,3.11c4.54-.32,9.88-.71,10.31-.56.6.22,5,.52,6.46,1.11s6.6,2.27,8.5,3.22c-3.34-4.73-6.77-9.19-9.54-11.69C36.42,14.91,26.33,5.81,22.75,2.86a12.68,12.68,0,0,0-4.07,1.71c-.62.63-.39,1.22-.8,2.14s.15,1.06,2.25,3.87.83,2.15,1.36,3.78M31,28.42c-.31.11-2.46.3-4.33.43a9.61,9.61,0,0,0-.24,1,3.33,3.33,0,0,0,1.12,2.9H52.05c-1.74-.64-6-2.19-6.56-2.49-.76-.38-5.91-1.32-6.26-1.48A64.13,64.13,0,0,0,31,28.42m78.43-2.17L106,36.08H25.65l-3.39-9.83H0V68.52H131.66V26.25ZM82.93,55.48H48.73a3.69,3.69,0,1,1,0-7.37h34.2a3.69,3.69,0,0,1,0,7.37"></path></g></g></svg>