<svg xmlns="http://www.w3.org/2000/svg" viewBox="0 0 27.42 17.66"><g id="Layer_2" data-name="Layer 2"><g id="Layer_1-2" data-name="Layer 1"><path d="M6.34,12.17a2.75,2.75,0,1,0,2.75,2.75,2.75,2.75,0,0,0-2.75-2.75"/><path d="M22.44,12.17a2.75,2.75,0,1,0,2.75,2.75,2.75,2.75,0,0,0-2.75-2.75"/><path d="M.93,11.75V13.3a1.62,1.62,0,0,0,1.62,1.62,3.77,3.77,0,0,1,1.71-3.17Z"/><path d="M24.76,2.7H18.52v9H8.42a3.8,3.8,0,0,1,1.71,3.18h8.52a3.79,3.79,0,1,1,7.58,0,1.19,1.19,0,0,0,1.19-1.19v-.51a36.38,36.38,0,0,0-1.14-9l-.1-.37a1.46,1.46,0,0,0-1.42-1.1"/><polygon points="0 0 0 4.56 7.64 4.56 7.64 2.63 12.6 5.49 7.64 8.35 7.64 6.42 0 6.42 0 10.98 17.61 10.98 17.61 0 0 0"/></g></g></svg>